<svg xmlns="http://www.w3.org/2000/svg" width="280" height="74" viewBox="0 0 280 74" role="img" aria-labelledby="title desc">
  <title id="title">Update Existing Library</title>
  <desc id="desc">Library exists but incomplete</desc>
  <defs>
    <linearGradient id="surface" x1="0" y1="0" x2="0" y2="1">
      <stop offset="0" stop-color="#ffffff"/>
      <stop offset="1" stop-color="#eaf1f7"/>
    </linearGradient>
    <linearGradient id="surfaceDark" x1="0" y1="0" x2="0" y2="1">
      <stop offset="0" stop-color="#1d2734"/>
      <stop offset="1" stop-color="#131a23"/>
    </linearGradient>
    <linearGradient id="iconBg" x1="0" y1="0" x2="1" y2="1">
      <stop offset="0" stop-color="#00A3C4"/>
      <stop offset=".45" stop-color="#00758F"/>
      <stop offset="1" stop-color="#F29111"/>
    </linearGradient>
    <linearGradient id="wash" x1="0" y1="0" x2="1" y2="0">
      <stop offset="0" stop-color="#F29111" stop-opacity="0"/>
      <stop offset="1" stop-color="#F29111" stop-opacity=".3"/>
    </linearGradient>
    <linearGradient id="washDark" x1="0" y1="0" x2="1" y2="0">
      <stop offset="0" stop-color="#F29111" stop-opacity="0"/>
      <stop offset="1" stop-color="#F29111" stop-opacity=".25"/>
    </linearGradient>
  </defs>
  <style>
    .surface { fill: url(#surface); stroke: #cfd6dd; stroke-width: 1; }
    .wash { fill: url(#wash); }
    .icon-bg { fill: url(#iconBg); }
    .icon-line { fill: none; stroke: #17202a; stroke-width: 3; stroke-linecap: round; stroke-linejoin: round; }
    .icon-fill { fill: #17202a; }
    .title { fill: #17202a; font: 700 17px Arial, Helvetica, sans-serif; }
    .caption { fill: #5d6b7a; font: 400 11.5px Arial, Helvetica, sans-serif; }
    @media (prefers-color-scheme: dark) {
      .surface { fill: url(#surfaceDark); stroke: #3b4858; }
      .wash { fill: url(#washDark); }
      .title { fill: #f7fafc; }
      .caption { fill: #b9c4d1; }
      .icon-line { stroke: #f7fafc; }
      .icon-fill { fill: #f7fafc; }
    }
  </style>
  <rect class="surface" x="1" y="1" width="278" height="72" rx="12"/>
  <path class="wash" d="M149 1h130v72H93c32-14 52-37 56-72z"/>
  <rect class="icon-bg" x="18" y="18" width="38" height="38" rx="9"/>
  <path class="icon-line" d="M46 37 A9 9 0 1 1 37 28"/>
  <path class="icon-fill" d="M37 25 L37 31 L42 28 Z"/>
  <text class="title" x="68" y="32">Update Existing Library</text>
  <text class="caption" x="68" y="51">Library exists but incomplete</text>
</svg>
