<svg xmlns="http://www.w3.org/2000/svg" width="280" height="74" viewBox="0 0 280 74" role="img" aria-labelledby="title desc">
  <title id="title">New library</title>
  <desc id="desc">Library is missing</desc>
  <defs>
    <linearGradient id="surface" x1="0" y1="0" x2="0" y2="1">
      <stop offset="0" stop-color="#ffffff"/>
      <stop offset="1" stop-color="#eaf1f7"/>
    </linearGradient>
    <linearGradient id="surfaceDark" x1="0" y1="0" x2="0" y2="1">
      <stop offset="0" stop-color="#1d2734"/>
      <stop offset="1" stop-color="#131a23"/>
    </linearGradient>
    <linearGradient id="iconBg" x1="0" y1="0" x2="1" y2="1">
      <stop offset="0" stop-color="#a8e0f6"/>
      <stop offset="1" stop-color="#5fb5e0"/>
    </linearGradient>
    <linearGradient id="pill" x1="0" y1="0" x2="0" y2="1">
      <stop offset="0" stop-color="#ffb14a"/>
      <stop offset="1" stop-color="#f4881a"/>
    </linearGradient>
  </defs>
  <style>
    .surface { fill: url(#surface); stroke: #cfd6dd; stroke-width: 1; }
    .wash { fill: #ffffff; opacity: .35; }
    .icon-bg { fill: url(#iconBg); }
    .pill { fill: url(#pill); }
    .icon-line { fill: none; stroke: #17202a; stroke-width: 3; stroke-linecap: round; stroke-linejoin: round; }
    .icon-fill { fill: #17202a; }
    .title { fill: #17202a; font: 700 19px Arial, Helvetica, sans-serif; }
    .caption { fill: #5d6b7a; font: 400 11.5px Arial, Helvetica, sans-serif; }
    .number { fill: #ffffff; font: 700 13px Arial, Helvetica, sans-serif; }
    @media (prefers-color-scheme: dark) {
      .surface { fill: url(#surfaceDark); stroke: #3b4858; }
      .wash { fill: #2a3a4f; opacity: .35; }
      .title { fill: #f7fafc; }
      .caption { fill: #b9c4d1; }
    }
  </style>
  <rect class="surface" x="1" y="1" width="278" height="72" rx="12"/>
  <path class="wash" d="M149 1h130v72H93c32-14 52-37 56-72z"/>
  <rect class="icon-bg" x="18" y="18" width="38" height="38" rx="9"/>
  <rect class="icon-fill" x="22" y="46" width="30" height="6" rx="1.5"/>
  <rect class="icon-fill" x="24" y="39" width="26" height="6" rx="1.5"/>
  <rect class="icon-fill" x="26" y="32" width="22" height="6" rx="1.5"/>
  <path fill="#f8941d" d="M48 22 L49 25 L52 26 L49 27 L48 30 L47 27 L44 26 L47 25 Z"/>
  <text class="title" x="72" y="32">New library</text>
  <text class="caption" x="72" y="51">Library is missing</text>
</svg>
