<svg xmlns="http://www.w3.org/2000/svg" width="84" height="84" viewBox="0 0 84 84" role="img" aria-label="GraalVM themed robot bunny">
  <style>
    .shell { fill: #ffffff; stroke: #2f2f2f; stroke-width: 3; }
    .panel { fill: #f6f8fa; stroke: #2f2f2f; stroke-width: 2; }
    .eye { fill: #0d6efd; }
    .antenna { fill: none; stroke: #2f2f2f; stroke-width: 3; stroke-linecap: round; stroke-linejoin: round; }
    .line { fill: none; stroke: #2f2f2f; stroke-width: 2.5; stroke-linecap: round; stroke-linejoin: round; }
    .accent-blue { fill: #0d6efd; }
    .accent-green { fill: #0b7f3a; }
    .accent-gold { fill: #f9a825; }
    @media (prefers-color-scheme: dark) {
      .shell { fill: #161b22; stroke: #f0f6fc; }
      .panel { fill: #21262d; stroke: #f0f6fc; }
      .antenna,
      .line { stroke: #f0f6fc; }
      .eye { fill: #58a6ff; }
    }
  </style>
  <path class="shell" d="M27 34C17 24 16 9 21 6c6-3 14 10 18 25"/>
  <path class="shell" d="M57 34c10-10 11-25 6-28-6-3-14 10-18 25"/>
  <path class="accent-gold" d="M28 26c-3-5-4-11-3-14 3 1 7 8 10 17"/>
  <path class="accent-gold" d="M56 26c3-5 4-11 3-14-3 1-7 8-10 17"/>
  <rect class="shell" x="18" y="29" width="48" height="43" rx="15"/>
  <rect class="panel" x="25" y="39" width="34" height="22" rx="7"/>
  <circle class="eye" cx="35" cy="50" r="4"/>
  <circle class="eye" cx="49" cy="50" r="4"/>
  <path class="line" d="M36 60h12"/>
  <path class="antenna" d="M42 29V18"/>
  <circle class="accent-gold" cx="42" cy="15" r="5"/>
  <path class="accent-blue" d="M18 54a24 24 0 0 0 17 17 30 30 0 0 1-10-23c0-4 1-8 3-12a24 24 0 0 0-10 18"/>
  <path class="accent-green" d="M50 71a24 24 0 0 0 16-16 30 30 0 0 1-24 11c-4 0-8-1-11-2a24 24 0 0 0 19 7"/>
  <path class="accent-gold" d="M66 43a24 24 0 0 0-17-14 30 30 0 0 1 10 22c0 3-1 7-2 10a24 24 0 0 0 9-18"/>
  <path class="line" d="M25 35h-8m50 0h-8"/>
</svg>
