<svg xmlns="http://www.w3.org/2000/svg" width="84" height="84" viewBox="0 0 84 84" role="img" aria-label="GraalVM themed robot bunny">
  <style>
    .shell { fill: #ffffff; stroke: #17202a; stroke-width: 3; }
    .panel { fill: #eef6fb; stroke: #17202a; stroke-width: 2; }
    .eye { fill: #8fd3f4; stroke: #17202a; stroke-width: 2; }
    .line { fill: none; stroke: #17202a; stroke-width: 2.5; stroke-linecap: round; stroke-linejoin: round; }
    .thin { fill: none; stroke: #17202a; stroke-width: 2; stroke-linecap: round; stroke-linejoin: round; }
    .blue { fill: #8fd3f4; }
    .orange { fill: #f8991d; }
    .purple { fill: #564165; opacity: .85; }
    @media (prefers-color-scheme: dark) {
      .shell { fill: #151d26; stroke: #f7fafc; }
      .panel { fill: #253b55; stroke: #f7fafc; }
      .eye { fill: #8fd3f4; stroke: #f7fafc; }
      .line,
      .thin { stroke: #f7fafc; }
    }
  </style>
  <path class="purple" d="M53 8c14 6 23 20 24 36 1 17-8 29-20 35 18-4 28-18 28-37C85 25 72 11 53 8z"/>
  <path class="shell" d="M27 34C17 24 16 9 21 6c6-3 14 10 18 25"/>
  <path class="shell" d="M57 34c10-10 11-25 6-28-6-3-14 10-18 25"/>
  <path class="orange" d="M28 26c-3-5-4-11-3-14 3 1 7 8 10 17"/>
  <path class="orange" d="M56 26c3-5 4-11 3-14-3 1-7 8-10 17"/>
  <rect class="shell" x="17" y="30" width="50" height="42" rx="12"/>
  <path class="blue" d="M19 55a25 25 0 0 0 17 17 30 30 0 0 1-10-24c0-4 1-8 3-12a24 24 0 0 0-10 19"/>
  <path class="orange" d="M67 43a24 24 0 0 0-17-14 30 30 0 0 1 10 22c0 3-1 7-2 10a24 24 0 0 0 9-18"/>
  <rect class="panel" x="25" y="39" width="34" height="21" rx="4"/>
  <circle class="eye" cx="35" cy="49" r="4"/>
  <circle class="eye" cx="49" cy="49" r="4"/>
  <path class="line" d="M36 58h12"/>
  <path class="line" d="M42 30V19"/>
  <path class="thin" d="M25 35h-8m50 0h-8"/>
  <path class="orange" d="M42 8l3 4 5-1 1 6-4 2v5l-5 2-3-4-5 1-1-6 4-2v-5z"/>
  <circle class="shell" cx="42" cy="17" r="3"/>
  <circle class="orange" cx="68" cy="57" r="3"/>
  <path class="thin" d="M64 57h8m-4-4v8"/>
</svg>
