<svg xmlns="http://www.w3.org/2000/svg" width="84" height="84" viewBox="0 0 84 84" role="img" aria-label="GraalVM themed bunny">
  <style>
    .fur { fill: #ffffff; stroke: #2f2f2f; stroke-width: 3; }
    .inner { fill: #f9a825; }
    .eye { fill: #111111; }
    .accent-blue { fill: #0d6efd; }
    .accent-green { fill: #0b7f3a; }
    .accent-gold { fill: #f9a825; }
    .line { fill: none; stroke: #2f2f2f; stroke-width: 3; stroke-linecap: round; }
    @media (prefers-color-scheme: dark) {
      .fur { fill: #161b22; stroke: #f0f6fc; }
      .eye { fill: #f0f6fc; }
      .line { stroke: #f0f6fc; }
    }
  </style>
  <path class="fur" d="M27 38C16 29 13 12 18 7c6-5 17 9 22 25"/>
  <path class="fur" d="M57 38c11-9 14-26 9-31-6-5-17 9-22 25"/>
  <path class="inner" d="M27 30c-4-5-7-14-5-17 3-1 9 9 12 18"/>
  <path class="inner" d="M57 30c4-5 7-14 5-17-3-1-9 9-12 18"/>
  <circle class="fur" cx="42" cy="48" r="25"/>
  <path class="accent-blue" d="M18 54a25 25 0 0 0 17 18 34 34 0 0 1-12-26c0-3 0-6 1-8a25 25 0 0 0-6 16"/>
  <path class="accent-green" d="M49 72a25 25 0 0 0 17-17 34 34 0 0 1-27 12c-3 0-6 0-8-1a25 25 0 0 0 18 6"/>
  <path class="accent-gold" d="M66 42a25 25 0 0 0-17-18 34 34 0 0 1 12 26c0 3 0 6-1 8a25 25 0 0 0 6-16"/>
  <circle class="eye" cx="34" cy="45" r="3"/>
  <circle class="eye" cx="50" cy="45" r="3"/>
  <path class="inner" d="M42 51l4 4h-8z"/>
  <path class="line" d="M35 57c4 4 10 4 14 0"/>
</svg>
